<?xml version="1.0" standalone="no"?><!DOCTYPE svg PUBLIC "-//W3C//DTD SVG 1.1//EN" "http://www.w3.org/Graphics/SVG/1.1/DTD/svg11.dtd"><svg t="1771246933258" class="icon" viewBox="0 0 1024 1024" version="1.1" xmlns="http://www.w3.org/2000/svg" p-id="8227" xmlns:xlink="http://www.w3.org/1999/xlink" width="200" height="200"><path d="M883.88039111 2.27555555c30.58346667 0 58.54549333 10.37653333 81.55591111 27.52512 11.21393778 7.93713778 20.82588445 17.94958222 28.76302223 28.76302223 16.74808889 22.79196445 27.52512 50.93603555 27.52512 81.73795555v743.61514667c0 30.58346667-10.41294222 58.50908445-27.52512 81.55591111a128.12288 128.12288 0 0 1-28.76302223 28.76302222 135.07697778 135.07697778 0 0 1-81.55591111 27.48871112H140.11960889c-30.58346667 0-58.54549333-10.41294222-81.55591111-27.52512a128.12288 128.12288 0 0 1-28.76302223-28.76302223A135.00416 135.00416 0 0 1 2.27555555 883.95320889V140.30165333c0-30.80192 10.41294222-58.94599111 27.12462223-81.77436444a128.15928889 128.15928889 0 0 1 28.76302222-28.76302222A137.15228445 137.15228445 0 0 1 140.04679111 2.27555555z m-223.84184889 381.41952h-138.06250667v58.47267556h38.15651556v187.36014222h-61.16693333l-15.21891556 30.11015112-4.84238222 9.53912888-8.92017778 17.62190222h214.30272v-57.08913777H622.31893333V441.36675555h37.71960889v-57.67168z m-191.07384889 242.11911112h-95.20924444c-8.73813333 17.14858667-18.75057778 36.73656889-30.76551111 60.80284444 31.78496 0 59.71057778 0.18204445 87.45415111-0.21845333 3.64088889-0.21845333 8.73813333-3.05834667 10.41294222-6.11669333 9.17504-16.52963555 17.51267555-33.64181333 28.10766222-54.4312889z m-243.64828444-265.56643556h-59.71057778v276.19783111H125.84732445l37.90165333 50.13504h36.33607111c2.51221333-0.10922667 25.19495111-2.03889778 24.64881778-36.88220444 0.36408889-90.51249778 0.58254222-198.93816889 0.58254222-289.45066667z m578.24597333 0h-59.71057777v24.46677334h-39.17596445v57.67168h38.55701333v51.55498666h-58.14499555v60.98488889h59.74698667v130.85354667h59.12803555v-131.69095112c29.12711111 0 55.88764445-0.40049778 82.39331555 0.21845334 13.25283555 0.18204445 20.38897778 8.55608889 20.75306667 21.59047111 0.18204445 4.15061333 0.25486222 10.37653333 0.29127111 17.25781333v10.66780445c-0.03640889 16.27477333-0.25486222 32.40391111-0.25486222 32.40391111l-59.74698666-0.18204444 23.04682666 49.51608888h56.14250667c6.5536-0.14563555 41.14204445-2.87630222 41.14204444-41.97944888v-104.38428445c0-35.06176-21.44483555-45.25624889-71.79832889-45.03779555v-11.1775289c-0.07281778-18.09521778-0.25486222-46.60337778-0.40049778-56.68864-0.18204445-38.55701333-36.08120889-41.39690667-42.96248888-41.5789511H803.99928889l-0.40049778-24.46677334zM122.97102222 443.80615111H60.16568889c5.09724445 78.89806222-17.73112889 148.62108445-17.73112889 151.06048 11.65084445 20.38897778 23.04682667 40.77795555 35.68071111 62.76892444 41.72458667-58.47267555 44.74652445-181.09781333 44.85575111-208.3680711v-5.46133334z m203.88977778-0.36408889H267.95121778c-0.40049778 111.04711111 15.07328 185.86737778 43.61784889 210.95310223 12.45184-36.08120889 29.78247111-74.41976889 29.78247111-74.4197689s-18.96903111-78.06065778-14.49073778-136.53333333z m152.11633778-83.19431111h-59.74698667c-17.33063111 35.46225778-35.68071111 70.92451555-51.99189333 107.00572444-10.19448889 22.82837333-1.82044445 34.04231111 22.82837333 35.06176 8.55608889 0.21845333 17.11217778 0 28.76302222 0-3.89575111 8.95658667-6.73564445 14.89123555-9.39349333 21.0079289-7.93713778 17.51267555-16.49322667 34.84330667-23.66577778 52.57443555-5.89824 14.27228445 0 25.88672 15.10968889 27.52512 21.00792889 2.25735111 42.23431111 1.6384 63.20583111 1.6384 2.25735111 0 5.71619555-2.65784889 6.91768889-4.9152 7.57304889-14.05383111 14.70919111-28.32611555 22.64632889-44.01834667-5.49774222-0.61895111-8.37404445-1.01944889-11.43239111-1.01944888-28.54456889-0.61895111-28.54456889-0.80099555-15.65582222-26.50567112l4.87879111-9.97603555c12.23338667-24.68522667 24.46677333-49.33404445 38.30215111-77.04120889-25.85031111 1.41994667-47.91409778 2.62144-72.16241778 4.07779556 10.41294222-27.74357333 26.72412445-56.28814222 41.39690667-85.41525334z m364.96270222 81.92v51.77344H804.36337778l-0.36408889-51.77344h39.94055111z m120.69546667-53.37543111c-13.83537778-13.25283555-28.54456889-8.99299555-39.13955556-2.25735111a31.89418667 31.89418667 0 0 0-14.89123556 27.12462222v30.36501334h31.8213689c27.70716445 0 42.81685333-33.45976889 23.66577777-53.63029334-0.43690667-0.58254222-0.83740445-1.20149333-1.45635555-1.60199111z" fill="#FFFFFF" p-id="8228"></path></svg>